<svg xmlns="http://www.w3.org/2000/svg" viewBox="0 0 258.703 39.984"><defs><style>.a{fill:#152a6d;}</style></defs><title>Recurso 3</title><path class="a" d="M50.212,27.542a12.18,12.18,0,0,0,6.162,1.738c3.516,0,5.57-1.857,5.57-4.543,0-2.489-1.422-3.911-5.017-5.293C52.582,17.9,49.9,15.652,49.9,11.9c0-4.148,3.437-7.229,8.611-7.229a12.1,12.1,0,0,1,5.886,1.3l-.948,2.8a10.6,10.6,0,0,0-5.056-1.264c-3.634,0-5.017,2.173-5.017,3.99,0,2.489,1.62,3.713,5.293,5.135,4.5,1.738,6.794,3.911,6.794,7.821,0,4.108-3.042,7.663-9.322,7.663a13.761,13.761,0,0,1-6.794-1.7Z"/><path class="a" d="M79.088,7.238a2.153,2.153,0,0,1-4.306,0,2.118,2.118,0,0,1,2.173-2.173A2.063,2.063,0,0,1,79.088,7.238ZM75.217,31.729V12.61h3.476V31.729Z"/><path class="a" d="M89.635,17.785c0-1.975-.04-3.595-.158-5.175h3.042l.158,3.081H92.8a6.59,6.59,0,0,1,6-3.516,5.651,5.651,0,0,1,5.412,3.832h.079a7.872,7.872,0,0,1,2.133-2.489,6.524,6.524,0,0,1,4.226-1.343c2.528,0,6.281,1.659,6.281,8.3V31.729h-3.4V20.905c0-3.674-1.343-5.886-4.148-5.886a4.5,4.5,0,0,0-4.108,3.16A5.723,5.723,0,0,0,105,19.918V31.729h-3.4V20.273c0-3.042-1.343-5.254-3.99-5.254A4.75,4.75,0,0,0,93.309,18.5a4.793,4.793,0,0,0-.276,1.7V31.729h-3.4Z"/><path class="a" d="M144.267,3.683V26.791c0,1.7.039,3.634.158,4.938H141.3l-.158-3.318h-.079a7.072,7.072,0,0,1-6.518,3.753c-4.622,0-8.177-3.911-8.177-9.717-.04-6.36,3.91-10.27,8.572-10.27a6.393,6.393,0,0,1,5.767,2.923h.079V3.683ZM140.79,20.392a6.15,6.15,0,0,0-.158-1.461,5.113,5.113,0,0,0-5.017-4.029c-3.595,0-5.728,3.16-5.728,7.387,0,3.871,1.9,7.071,5.649,7.071a5.226,5.226,0,0,0,5.1-4.148,6.051,6.051,0,0,0,.158-1.5Z"/><path class="a" d="M157.144,22.8c.079,4.7,3.081,6.636,6.557,6.636a12.569,12.569,0,0,0,5.293-.988l.593,2.488a15.487,15.487,0,0,1-6.36,1.185c-5.885,0-9.4-3.871-9.4-9.638s3.4-10.31,8.966-10.31c6.241,0,7.9,5.491,7.9,9.006a13.122,13.122,0,0,1-.119,1.62Zm10.191-2.488c.039-2.212-.909-5.649-4.819-5.649-3.515,0-5.056,3.239-5.332,5.649Z"/><path class="a" d="M179.7,28.174a9.112,9.112,0,0,0,4.582,1.382c2.528,0,3.713-1.264,3.713-2.844,0-1.659-.987-2.567-3.555-3.516-3.437-1.224-5.056-3.12-5.056-5.411,0-3.081,2.488-5.609,6.6-5.609a9.542,9.542,0,0,1,4.7,1.185l-.869,2.528a7.438,7.438,0,0,0-3.91-1.106c-2.054,0-3.2,1.185-3.2,2.607,0,1.58,1.145,2.291,3.634,3.239,3.318,1.264,5.017,2.923,5.017,5.767,0,3.358-2.607,5.728-7.15,5.728a10.9,10.9,0,0,1-5.372-1.3Z"/><path class="a" d="M204.863,7.238a2.153,2.153,0,0,1-4.305,0,2.118,2.118,0,0,1,2.173-2.173A2.063,2.063,0,0,1,204.863,7.238Zm-3.871,24.491V12.61h3.476V31.729Z"/><path class="a" d="M231.881,12.61c-.079,1.383-.158,2.923-.158,5.254v11.1c0,4.385-.869,7.071-2.726,8.73a10.135,10.135,0,0,1-6.952,2.291,12.339,12.339,0,0,1-6.36-1.58l.869-2.646a10.782,10.782,0,0,0,5.609,1.5c3.555,0,6.162-1.856,6.162-6.676V28.45h-.079a6.825,6.825,0,0,1-6.083,3.2c-4.74,0-8.137-4.029-8.137-9.322,0-6.478,4.227-10.152,8.611-10.152a6.359,6.359,0,0,1,5.965,3.318h.079l.158-2.884Zm-3.595,7.545a4.95,4.95,0,0,0-.2-1.58,5.007,5.007,0,0,0-4.859-3.673c-3.318,0-5.688,2.8-5.688,7.229,0,3.752,1.9,6.873,5.649,6.873a5.082,5.082,0,0,0,4.819-3.555,6.048,6.048,0,0,0,.276-1.856Z"/><path class="a" d="M242.429,17.785c0-1.975-.039-3.595-.158-5.175h3.081l.2,3.16h.079a7.03,7.03,0,0,1,6.32-3.595c2.646,0,6.754,1.58,6.754,8.137V31.729h-3.476V20.708c0-3.081-1.145-5.649-4.424-5.649a4.938,4.938,0,0,0-4.661,3.555,5,5,0,0,0-.237,1.62V31.729h-3.476Z"/><path class="a" d="M22.15,18.557a5.2,5.2,0,0,0-7.11,0Z"/><path class="a" d="M13.918,2.911a5.174,5.174,0,0,0-.475,1.506h10.3a5.174,5.174,0,0,0-.476-1.506Z"/><path class="a" d="M13.428,5.922a5.176,5.176,0,0,0,.443,1.506h9.449a5.176,5.176,0,0,0,.443-1.506Z"/><path class="a" d="M22.15,1.405a5.2,5.2,0,0,0-7.11,0Z"/><path class="a" d="M14.929,8.934a5.214,5.214,0,0,0,7.331,0Z"/><path class="a" d="M18.557,15.763a58.044,58.044,0,0,1,11.722,1.083,13.323,13.323,0,0,1,4.777,1.711,13.323,13.323,0,0,1-4.777,1.711A58.044,58.044,0,0,1,18.557,21.35,58.045,58.045,0,0,1,6.835,20.268a13.323,13.323,0,0,1-4.777-1.711,13.323,13.323,0,0,1,4.777-1.711,58.045,58.045,0,0,1,11.722-1.083m0-1.846C8.308,13.918,0,15.995,0,18.557S8.308,23.2,18.557,23.2s18.557-2.077,18.557-4.639-8.308-4.639-18.557-4.639Z"/><circle class="a" cx="18.557" cy="31.894" r="5.22"/></svg>