<svg xmlns="http://www.w3.org/2000/svg" viewBox="0 0 475.082 511.635"><defs><style>.a{fill:#fff;}</style></defs><title>Recurso 1</title><path class="a" d="M464.237,83.942a35.1,35.1,0,0,0-25.694-10.85H402V45.682A44,44,0,0,0,388.58,13.421,44,44,0,0,0,356.315,0H338.047a43.986,43.986,0,0,0-32.264,13.422,43.978,43.978,0,0,0-13.422,32.261v27.41H182.731V45.683a43.988,43.988,0,0,0-13.422-32.261A43.985,43.985,0,0,0,137.045,0H118.774A43.993,43.993,0,0,0,86.51,13.422,43.993,43.993,0,0,0,73.089,45.683v27.41H36.547a35.12,35.12,0,0,0-25.7,10.85A35.123,35.123,0,0,0,0,109.64V475.093a35.134,35.134,0,0,0,10.85,25.693,35.123,35.123,0,0,0,25.7,10.849H438.536a37.058,37.058,0,0,0,36.546-36.542V109.639A35.13,35.13,0,0,0,464.237,83.942ZM328.911,45.686a8.779,8.779,0,0,1,9.13-9.135h18.268a8.79,8.79,0,0,1,9.137,9.135V127.91a8.79,8.79,0,0,1-9.137,9.135H338.041a8.779,8.779,0,0,1-9.13-9.135Zm-219.272,0a8.792,8.792,0,0,1,9.135-9.135h18.271a8.795,8.795,0,0,1,9.137,9.135V127.91a8.795,8.795,0,0,1-9.137,9.135H118.774a8.792,8.792,0,0,1-9.135-9.135Zm328.9,429.4H36.547V182.728H438.536Z"/></svg>