<svg xmlns="http://www.w3.org/2000/svg" viewBox="0 0 42.59 42.59"><defs><style>.a{fill:#b7c1e0;}.b{fill:#fff;}.c{fill:#152a6d;}.d{fill:#5165a5;}.e{fill:#1a3488;}.f{fill:#8593c2;}</style></defs><title>clock_1</title><circle class="a" cx="21.295" cy="21.295" r="21.295"/><circle class="b" cx="21.295" cy="21.295" r="17.258"/><path class="c" d="M28.5,16.371a1.615,1.615,0,0,0-2.284-2.284L20.1,20.21l2.284,2.284Z"/><path class="d" d="M20.316,20.847,11.233,29.93a1.009,1.009,0,1,0,1.427,1.427l9.083-9.083Z"/><path class="c" d="M14.23,11.946a1.615,1.615,0,0,0-2.284,2.284l8.264,8.264,2.284-2.284Z"/><path class="e" d="M21.3,23.818A2.523,2.523,0,1,1,23.818,21.3,2.526,2.526,0,0,1,21.3,23.818Z"/><path class="f" d="M9.588,22.3H8.074a1.009,1.009,0,1,1,0-2.019H9.588a1.009,1.009,0,1,1,0,2.019Z"/><path class="f" d="M21.3,10.6a1.009,1.009,0,0,1-1.009-1.009V8.074a1.009,1.009,0,1,1,2.019,0V9.588A1.009,1.009,0,0,1,21.3,10.6Z"/><path class="f" d="M34.516,22.3H33a1.009,1.009,0,1,1,0-2.019h1.514a1.009,1.009,0,1,1,0,2.019Z"/><path class="f" d="M21.3,35.526a1.009,1.009,0,0,1-1.009-1.009V33A1.009,1.009,0,1,1,22.3,33v1.514A1.009,1.009,0,0,1,21.3,35.526Z"/></svg>