<svg xmlns="http://www.w3.org/2000/svg" viewBox="0 0 587.91 587.908"><defs><style>.a{fill:#fff;}</style></defs><title>register</title><path class="a" d="M86.451,501.459a292.678,292.678,0,1,0-62.872-93.266A292.438,292.438,0,0,0,86.451,501.459ZM293.955,43.34c138.411,0,250.614,112.2,250.614,250.615s-112.2,250.613-250.614,250.613S43.34,432.365,43.34,293.955,155.544,43.34,293.955,43.34Z"/><path class="a" d="M293.955,587.908A294.02,294.02,0,0,1,179.52,23.118,294.02,294.02,0,0,1,408.387,564.792,292.172,292.172,0,0,1,293.955,587.908ZM293.955,1A293.021,293.021,0,0,0,179.911,563.87,293.019,293.019,0,0,0,408,24.04,291.135,291.135,0,0,0,293.955,1Zm0,544.068A251.113,251.113,0,0,1,116.39,116.39,251.114,251.114,0,1,1,471.519,471.519,249.471,249.471,0,0,1,293.955,545.068Zm0-501.228A250.114,250.114,0,0,0,117.1,470.811,250.114,250.114,0,1,0,470.812,117.1,248.474,248.474,0,0,0,293.955,43.84Z"/><path class="a" d="M228.992,400.793a21.421,21.421,0,0,0,30.292,0L442.67,217.408a21.42,21.42,0,1,0-30.293-30.292L244.138,355.356l-68.606-68.607a21.42,21.42,0,0,0-30.292,30.292Z"/><path class="a" d="M244.138,407.566a21.777,21.777,0,0,1-15.5-6.42l-83.752-83.752a21.92,21.92,0,1,1,31-31l68.253,68.253L412.024,186.761a21.92,21.92,0,1,1,31,31L259.638,401.146A21.774,21.774,0,0,1,244.138,407.566ZM160.386,280.974a20.92,20.92,0,0,0-14.792,35.713l83.752,83.752a20.92,20.92,0,0,0,29.585,0L442.316,217.054a20.92,20.92,0,0,0-29.586-29.585L244.138,356.062l-68.96-68.96A20.779,20.779,0,0,0,160.386,280.974Z"/></svg>