<svg xmlns="http://www.w3.org/2000/svg" viewBox="0 0 36.673 29.803"><defs><style>.a{fill:#fff;}</style></defs><title>twitter</title><path class="a" d="M36.673,3.528a15.03,15.03,0,0,1-4.321,1.185A7.547,7.547,0,0,0,35.66.55a15.065,15.065,0,0,1-4.778,1.826A7.531,7.531,0,0,0,18.061,9.238,21.359,21.359,0,0,1,2.553,1.377,7.532,7.532,0,0,0,4.881,11.422a7.491,7.491,0,0,1-3.408-.941c0,.031,0,.063,0,.095a7.529,7.529,0,0,0,6.036,7.378,7.544,7.544,0,0,1-3.4.129,7.533,7.533,0,0,0,7.029,5.225,15.1,15.1,0,0,1-9.344,3.221A15.3,15.3,0,0,1,0,26.423,21.294,21.294,0,0,0,11.534,29.8C25.373,29.8,32.941,18.339,32.941,8.4q0-.489-.022-.973A15.28,15.28,0,0,0,36.673,3.528Z"/></svg>